<?xml version="1.0" standalone="no"?>
<!DOCTYPE svg PUBLIC "-//W3C//DTD SVG 20010904//EN"
 "http://www.w3.org/TR/2001/REC-SVG-20010904/DTD/svg10.dtd">
<svg version="1.0" xmlns="http://www.w3.org/2000/svg"
 width="432.000000pt" height="432.000000pt" viewBox="0 0 432.000000 432.000000"
 preserveAspectRatio="xMidYMid meet">
<metadata>
Created by potrace 1.11, written by Peter Selinger 2001-2013
</metadata>
<g transform="translate(0.000000,432.000000) scale(0.100000,-0.100000)"
fill="#000000" stroke="none">
<path d="M480 4193 c-97 -35 -155 -63 -208 -100 -263 -186 -295 -560 -68 -786
167 -166 395 -208 624 -114 75 30 75 31 -9 -95 -107 -159 -199 -378 -233 -553
-9 -44 -18 -93 -22 -110 -14 -73 -13 -391 2 -480 39 -237 122 -450 248 -640
91 -138 250 -311 363 -397 354 -270 841 -390 1248 -310 304 60 515 156 741
334 34 26 64 48 68 48 3 0 -4 -21 -16 -47 -35 -78 -44 -143 -37 -252 6 -90 11
-110 48 -185 52 -107 136 -188 260 -249 l84 -42 147 0 146 0 88 44 c164 81
266 210 302 384 48 225 -87 473 -309 572 -143 62 -323 59 -471 -8 -32 -15 -60
-27 -63 -27 -2 0 14 24 35 53 80 109 156 245 202 362 31 77 92 298 105 380 10
66 7 395 -5 470 -14 93 -62 265 -101 362 -131 332 -399 637 -709 805 -337 183
-644 237 -1047 183 -78 -10 -229 -53 -331 -93 -139 -54 -271 -129 -383 -217
-51 -41 -94 -73 -95 -72 -1 1 9 36 23 77 36 108 36 255 0 358 -46 133 -142
232 -291 303 -66 31 -75 38 -55 42 13 2 -41 5 -121 5 -80 0 -152 -2 -160 -5z"/>
</g>
</svg>
