<?xml version="1.0" standalone="no"?>
<!DOCTYPE svg PUBLIC "-//W3C//DTD SVG 20010904//EN"
 "http://www.w3.org/TR/2001/REC-SVG-20010904/DTD/svg10.dtd">
<svg version="1.0" xmlns="http://www.w3.org/2000/svg"
 width="263.000000pt" height="263.000000pt" viewBox="0 0 263.000000 263.000000"
 preserveAspectRatio="xMidYMid meet">
<metadata>
Created by potrace 1.11, written by Peter Selinger 2001-2013
</metadata>
<g transform="translate(0.000000,263.000000) scale(0.100000,-0.100000)"
fill="#000000" stroke="none">
<path d="M555 2616 c-56 -18 -117 -58 -154 -102 -62 -76 -62 -75 -59 -675 3
-518 4 -546 23 -584 28 -56 88 -113 154 -144 l56 -26 575 -3 c540 -2 577 -4
600 -21 l25 -18 1 -266 1 -266 -23 -22 -24 -22 -442 1 c-244 0 -451 1 -460 1
-16 1 -18 12 -18 95 l0 94 -235 0 -235 -1 0 -201 c0 -235 9 -279 69 -347 21
-25 65 -58 97 -74 l59 -30 716 -3 c705 -3 718 -2 772 18 74 28 148 95 178 162
l23 53 0 540 c0 526 -1 541 -21 586 -40 89 -139 168 -229 183 -16 2 -280 5
-587 5 l-558 1 -23 23 c-23 23 -23 25 -23 281 -1 249 0 259 21 283 l21 24 458
1 c252 0 461 -3 464 -6 3 -3 7 -45 7 -93 l1 -88 235 0 235 0 -1 210 c-1 196
-3 214 -24 263 -28 65 -102 134 -173 161 -50 19 -78 20 -757 20 -541 0 -714
-3 -745 -13z"/>
</g>
</svg>
