<svg xmlns="http://www.w3.org/2000/svg" width="55cm" height="14cm" viewBox="413 137 1089 275"><text font-size="19.756" x="486" y="356.85" fill="#fff" text-anchor="middle" font-family="Arial" font-weight="700" opacity=".33"><tspan x="486" y="356.85">Artist</tspan></text><path fill="none" stroke-width="5" stroke="#f8263f" opacity=".33" d="M556 350h40"/><text font-size="19.756" x="638" y="356.85" fill="#fff" text-anchor="middle" font-family="Arial" font-weight="700" opacity=".33"><tspan x="638" y="356.85">Selects</tspan></text><text font-size="19.756" x="790" y="332.156" fill="#fff" text-anchor="middle" font-family="Arial" font-weight="700" opacity=".33"><tspan x="790" y="332.156">List of</tspan> <tspan x="790" y="356.85">Tech</tspan> <tspan x="790" y="381.544">Projects</tspan></text><path fill="none" stroke-width="5" stroke="#f8263f" opacity=".33" d="M860 350h40"/><text font-size="19.756" x="950" y="344.227" fill="#fff" text-anchor="middle" font-family="Arial" font-weight="700" opacity=".33"><tspan x="950" y="344.227">Chooses</tspan> <tspan x="950" y="368.921">(Optional)</tspan></text><text font-size="19.756" x="1110" y="344.503" fill="#fff" text-anchor="middle" font-family="Arial" font-weight="700"><tspan x="1110" y="344.503">List of</tspan> <tspan x="1110" y="369.197">Producers</tspan></text><path fill="none" stroke-width="5" stroke="#f8263f" opacity=".33" d="M1180 350h40"/><text font-size="19.756" x="1270" y="356.85" fill="#fff" text-anchor="middle" font-family="Arial" font-weight="700" opacity=".33"><tspan x="1270" y="356.85">Submits</tspan></text><text font-size="19.756" x="1430" y="344.503" fill="#fff" text-anchor="middle" font-family="Arial" font-weight="700" opacity=".33"><tspan x="1430" y="344.503">Artistic</tspan> <tspan x="1430" y="369.197">Proposal</tspan></text><text font-size="19.756" x="790" y="166.85" fill="#fff" text-anchor="middle" font-family="Arial" font-weight="700" opacity=".33"><tspan x="790" y="166.85">Tech Team</tspan></text><path opacity=".33" fill="none" stroke="#43e1c3" stroke-width="4.851" d="M790 182.496v37.651"/><text font-size="19.756" x="790" y="241.85" fill="#fff" text-anchor="middle" font-family="Arial" font-weight="700" opacity=".33"><tspan x="790" y="241.85">Submits</tspan></text><text font-size="19.756" x="1110" y="166.85" fill="#fff" text-anchor="middle" font-family="Arial" font-weight="700"><tspan x="1110" y="166.85">Producer</tspan></text><path fill="none" stroke="#fff" stroke-width="4.851" d="M1110 182.499v37.648"/><text font-size="19.756" x="1110" y="241.85" fill="#fff" text-anchor="middle" font-family="Arial" font-weight="700"><tspan x="1110" y="241.85">Submits</tspan></text><rect x="720" y="290" width="140" height="120" rx="4" ry="4" fill="none" stroke-width="5" stroke-linejoin="round" stroke="#43e1c3" opacity=".33"/><rect x="1040" y="290" width="140" height="120" rx="4" ry="4" fill="none" stroke-width="5" stroke-linejoin="round" stroke="#fff"/><rect x="416" y="330" width="140" height="40" rx="4" ry="4" fill="none" stroke-width="5" stroke-linejoin="round" stroke="#f8263f" opacity=".33"/><rect x="1360" y="290" width="140" height="120" rx="4" ry="4" fill="none" stroke-width="5" stroke-linejoin="round" stroke="#f8263f" opacity=".33"/><rect x="720" y="140" width="140" height="40" rx="4" ry="4" fill="none" stroke-width="5" stroke-linejoin="round" stroke="#43e1c3" opacity=".33"/><rect x="1040" y="140" width="140" height="40" rx="4" ry="4" fill="none" stroke-width="5" stroke-linejoin="round" stroke="#fff"/><g opacity=".33"><path fill="none" stroke-width="5" stroke-linejoin="round" stroke="#f8263f" d="M680 350h26.91"/><path fill="#f8263f" d="M714.41 350l-10 5 2.5-5-2.5-5z"/><path fill="none" stroke-width="5" stroke="#f8263f" d="M714.41 350l-10 5 2.5-5-2.5-5z"/></g><g opacity=".33"><path fill="none" stroke-width="5" stroke="#f8263f" d="M1000 350h26.91"/><path fill="#f8263f" d="M1034.41 350l-10 5 2.5-5-2.5-5z"/><path fill="none" stroke-width="5" stroke="#f8263f" d="M1034.41 350l-10 5 2.5-5-2.5-5z"/></g><g opacity=".33"><path fill="none" stroke-width="5" stroke="#f8263f" d="M1320 350h26.91"/><path fill="#f8263f" d="M1354.41 350l-10 5 2.5-5-2.5-5z"/><path fill="none" stroke-width="5" stroke="#f8263f" d="M1354.41 350l-10 5 2.5-5-2.5-5z"/></g><g opacity=".33"><path fill="none" stroke-width="5" stroke="#43e1c3" d="M790 250v26.91"/><path fill="#43e1c3" d="M790 284.41l-5-10 5 2.5 5-2.5z"/><path fill="none" stroke-width="5" stroke="#43e1c3" d="M790 284.41l-5-10 5 2.5 5-2.5z"/></g><path fill="none" stroke-width="5" stroke="#fff" d="M1110 250v26.91"/><path fill="#fff" d="M1110 284.41l-5-10 5 2.5 5-2.5z"/><path fill="none" stroke-width="5" stroke="#fff" d="M1110 284.41l-5-10 5 2.5 5-2.5z"/></svg>